# xmcd
#
# Track frame offsets:
#	150
#	21367
#	40467
#	58305
#	74117
#	90640
#	116872
#	135535
#	157965
#	172670
#
# Disc length: 2643 seconds
#
# Revision: 4
# Processed by: cddbd v1.5.2PL0 Copyright (c) Steve Scherf et al.
# Submitted via: EasyCDDAExtractor 15.3.0.1
#
DISCID=8d0a510a
DTITLE=Ednita Nazario - Apasionada
DYEAR=2005
DGENRE=Latin
TTITLE0=Vengada
TTITLE1=Ni Heroes Ni Vencidos
TTITLE2=Por Hoy
TTITLE3=A Que Pides Mas
TTITLE4=A Mi Si Que No
TTITLE5=Sobrevivo
TTITLE6=Agua Profunda
TTITLE7=Olvidarte
TTITLE8=Mariposa
TTITLE9=Una Y Otra Vez
EXTD=
EXTT0=
EXTT1=
EXTT2=
EXTT3=
EXTT4=
EXTT5=
EXTT6=
EXTT7=
EXTT8=
EXTT9=
PLAYORDER=
